<svg width="89" height="76" viewBox="0 0 89 76" fill="none" xmlns="http://www.w3.org/2000/svg">
<path d="M8 41V35H24V41H8Z" stroke="#2D336B" stroke-width="2"/>
<path d="M8 55.0002V49.0002H24V55.0002H8Z" stroke="#2D336B" stroke-width="2"/>
<path d="M8 69.0002V63.0002H24V69.0002H8Z" stroke="#2D336B" stroke-width="2"/>
<path d="M27 40.9998V34.9998H43V40.9998H27Z" stroke="#2D336B" stroke-width="2"/>
<path d="M27 55V49H43V55H27Z" stroke="#2D336B" stroke-width="2"/>
<path d="M27 69V63H43V69H27Z" stroke="#2D336B" stroke-width="2"/>
<path d="M46 40.9998V34.9998H62V40.9998H46Z" stroke="#2D336B" stroke-width="2"/>
<path d="M46 55V49H62V55H46Z" stroke="#2D336B" stroke-width="2"/>
<path d="M46 69V63H62V69H46Z" stroke="#2D336B" stroke-width="2"/>
<path d="M65 40.9998V34.9998H81V40.9998H65Z" stroke="#2D336B" stroke-width="2"/>
<path d="M65 55V49H81V55H65Z" stroke="#2D336B" stroke-width="2"/>
<path d="M65 69V63H81V69H65Z" stroke="#2D336B" stroke-width="2"/>
<path d="M8 12H1V20.5V75H88V12H18" stroke="#2D336B" stroke-width="2"/>
<path d="M88 13.1014C86.629 45.9252 43.957 20.4804 43.957 20.4804C43.957 20.4804 31.882 28.5204 20 29.7887M1 13.1014C1 26.8996 9.8697 30.4752 18.5 30" stroke="#2D336B" stroke-width="2"/>
<path d="M12.7387 1C20.3902 1 20.3902 16.1795 12.7387 16.1795C5.08711 16.1795 5.08711 1 12.7387 1Z" stroke="#2D336B" stroke-width="2"/>
<path d="M12.0212 16.1793L20.6292 37.9998L17.0426 14.2819" stroke="#2D336B" stroke-width="2" stroke-linejoin="round"/>
<path d="M62.9355 16.875L63.5806 15L63.9032 16.875L66 17.5L63.9032 18.125L63.2581 20L62.7742 18.125L61 17.2917L62.9355 16.875Z" stroke="#2D336B" stroke-width="2" stroke-linejoin="round"/>
<path d="M68.9355 21.875L69.5806 20L69.9032 21.875L72 22.5L69.9032 23.125L69.2581 25L68.7742 23.125L67 22.2917L68.9355 21.875Z" stroke="#2D336B" stroke-width="2" stroke-linejoin="round"/>
<path d="M75.5484 17.875L76.0645 16L76.3226 17.875L78 18.5L76.3226 19.125L75.8065 21L75.4194 19.125L74 18.2917L75.5484 17.875Z" stroke="#2D336B" stroke-width="2" stroke-linejoin="round"/>
</svg>
